Coordinates
version=1
nRows=17
nColumns=24
inDegrees=yes

Units are S.I. units (second, meters, Newtons, ...)
If the header above contains a line with 'inDegrees', this indicates whether rotational values are in degrees (yes) or radians (no).

endheader
time	pelvis_tilt	pelvis_list	pelvis_rotation	pelvis_tx	pelvis_ty	pelvis_tz	hip_flexion_r	hip_adduction_r	hip_rotation_r	knee_angle_r	ankle_angle_r	subtalar_angle_r	mtp_angle_r	hip_flexion_l	hip_adduction_l	hip_rotation_l	knee_angle_l	ankle_angle_l	subtalar_angle_l	mtp_angle_l	lumbar_extension	lumbar_bending	lumbar_rotation
      0.00000000	      9.82511850	     -6.19936650	     -3.35338759	      0.61401009	      0.97445367	      0.03750319	    -28.66788756	      4.19563204	      0.41923379	     -6.26945042	      6.21682871	     10.20860168	      0.00000000	     16.55147677	     -9.18974277	     -9.50040753	     -8.28465690	     -3.34571037	     11.37668553	      0.00000000	    -26.97540744	      4.96289907	      2.87580728
      0.01700000	      9.68056324	     -5.94555681	     -3.47200537	      0.61507753	      0.97279401	      0.03517906	    -28.70517618	      3.48595844	     -0.25798890	     -8.09675903	      6.35016977	     11.58855229	      0.00000000	     17.13906433	     -8.68199270	     -8.63882293	    -10.49105716	     -4.69825029	     10.34296979	      0.00000000	    -26.72440395	      4.45013222	      2.76256334
      0.03300000	      9.40580303	     -5.78662588	     -3.45541064	      0.61655984	      0.97122492	      0.03277205	    -28.57106519	      2.94867476	     -0.64096064	     -9.90695211	      5.96582043	     12.56831531	      0.00000000	     17.87278319	     -8.28213197	     -8.37993051	    -12.98436356	     -5.91487761	      9.64165893	      0.00000000	    -26.28170214	      4.09919223	      2.60999446
      0.05000000	      9.00309512	     -5.69860622	     -3.69689344	      0.61794307	      0.96998941	      0.03048405	    -27.90464328	      2.40427916	     -0.62976138	    -12.38434015	      5.36556914	     13.10228708	      0.00000000	     18.70915112	     -8.11756801	     -8.31906594	    -15.59647797	     -6.91860715	      9.01643755	      0.00000000	    -25.76428795	      3.69502400	      2.37415017
      0.06700000	      9.03339730	     -5.43403978	     -3.67707159	      0.62052173	      0.96963369	      0.02776864	    -27.57816699	      1.72990427	     -0.99906855	    -15.07039475	      4.16632671	     13.70664913	      0.00000000	     18.99320134	     -7.73891032	     -7.92215127	    -18.29250579	     -7.21990732	      8.58313993	      0.00000000	    -25.51208643	      3.20055211	      2.10661922
      0.08300000	      8.78806064	     -5.03430024	     -3.55404912	      0.62254907	      0.97002462	      0.02490596	    -26.36504711	      1.02941203	     -1.36480337	    -18.60403799	      2.68290765	     13.94308345	      0.00000000	     19.08473297	     -7.06125492	     -6.92699712	    -20.06341663	     -7.61361888	      7.40239609	      0.00000000	    -25.08161665	      2.59682417	      1.91730892
      0.10000000	      9.21481859	     -4.28421726	     -3.66910162	      0.62602445	      0.97159630	      0.02146127	    -25.47683263	     -0.34141178	     -2.00742491	    -22.73945769	      0.71920060	     14.52709950	      0.00000000	     18.26546391	     -6.21972289	     -7.21856926	    -22.02334134	     -7.01333970	      7.47189325	      0.00000000	    -25.21412648	      1.60934592	      1.66792456
      0.11700000	      9.57013881	     -3.62214867	     -3.21518845	      0.62904921	      0.97369273	      0.01699303	    -24.09636201	     -1.42790872	     -3.29531418	    -27.36271395	     -2.12550787	     14.39270869	      0.00000000	     17.30939255	     -5.27050496	     -7.01065959	    -23.39594514	     -6.29183254	      7.76165216	      0.00000000	    -25.29264673	      0.97536224	      0.84508263
      0.13300000	      9.38316739	     -2.91199885	     -3.21034167	      0.63073313	      0.97536434	      0.01338642	    -21.16263578	     -2.74904114	     -4.21749633	    -33.23160522	     -5.18222918	     13.48156087	      0.00000000	     16.62278783	     -4.40503840	     -7.29452142	    -24.21387724	     -5.49491521	      7.99695692	      0.00000000	    -24.92830924	      0.14440967	      0.37226325
      0.15000000	      8.85819212	     -1.98216218	     -3.16742022	      0.63099224	      0.97676440	      0.00904572	    -17.18936309	     -4.40804590	     -5.23860309	    -39.77546016	     -8.75919360	     11.93495013	      0.00000000	     15.96256165	     -3.08628075	     -7.36473158	    -24.19112513	     -4.81947450	      7.58166694	      0.00000000	    -24.27578540	     -0.73480816	     -0.00127150
      0.16700000	      8.66900397	     -0.77177991	     -2.96210029	      0.63224509	      0.97877591	      0.00496648	    -13.72899143	     -6.32556197	     -6.27482338	    -45.69039030	    -12.35431524	      9.75828031	      0.00000000	     14.55992654	     -1.40057635	     -7.54289707	    -23.58096122	     -3.94958200	      7.30362359	      0.00000000	    -23.92144553	     -1.92180175	     -1.12210547
      0.18300000	      8.13801234	      0.57129208	     -3.14289989	      0.63105148	      0.98032151	      0.00092519	     -9.38767792	     -8.54232948	     -6.71214133	    -51.78064886	    -14.62816277	      7.55208974	      0.00000000	     13.46548518	      0.46155494	     -7.64114097	    -22.53229179	     -3.52418001	      6.50308760	      0.00000000	    -23.38883661	     -3.29640783	     -1.74099950
      0.20000000	      8.14225933	      1.67893396	     -2.97533400	      0.63088073	      0.98275923	     -0.00291764	     -6.11710649	    -10.26631758	     -7.12200483	    -56.82129263	    -15.30258543	      4.66726276	      0.00000000	     11.70647946	      2.10965423	     -7.52108045	    -21.44789072	     -2.93321379	      6.10361817	      0.00000000	    -23.27950414	     -4.30216281	     -2.85192999
      0.21700000	      8.24914933	      2.23948343	     -2.75511102	      0.63026755	      0.98560418	     -0.00652807	     -3.13761065	    -11.18010358	     -7.29702075	    -61.10806571	    -14.39028151	      1.63552925	      0.00000000	      9.84596366	      3.11089972	     -7.27472332	    -20.42531204	     -2.27118869	      6.07397819	      0.00000000	    -23.36772075	     -4.72489817	     -3.47988411
      0.23300000	      8.50714500	      2.67439379	     -2.10525533	      0.63034583	      0.98895550	     -0.01026325	     -0.79099417	    -11.85811405	     -7.85566030	    -64.44097604	    -12.57007810	     -0.68335795	      0.00000000	      7.62051438	      4.00018964	     -6.61964054	    -19.11234704	     -1.75479975	      6.21634879	      0.00000000	    -23.62971198	     -4.87369475	     -4.55715929
      0.25000000	      8.86080410	      3.03906928	     -1.87747519	      0.62924544	      0.99216488	     -0.01277553	      1.72222765	    -12.31248535	     -7.72278171	    -67.31331440	    -10.69194629	     -2.31649340	      0.00000000	      5.19481961	      4.71696640	     -6.16081459	    -17.49404980	     -1.45950683	      6.19132931	      0.00000000	    -23.97747655	     -5.10344258	     -5.31908263
      0.26700000	      8.76427360	      3.34502735	     -1.20252418	      0.62764947	      0.99418261	     -0.01610203	      4.45802237	    -12.83527569	     -8.15228574	    -69.45732796	     -9.05381750	     -2.89275987	      0.00000000	      3.45985067	      5.36829537	     -5.28117901	    -16.20216230	     -1.11598803	      6.07425681	      0.00000000	    -23.90762874	     -5.04546847	     -6.33968906
